PathFileType	4	(X/Y/Z)	Run_200 02
DataRate	CameraRate	NumFrames	NumMarkers	Units	OrigDataRate	OrigDataStartFrame	OrigNumFrames
100	100	4	42	mm	100	9	128
Frame#	Time	RASI			LPSI			RPSI			RTH2			RTH3			LTH1			LTH2			LTH3			RTB1			RTB2			LTB1			LTB2			LTB3			RCAL			RMT5			LCAL			LTOE			LMT5			LACR			RACR			CLAV			C7			RUA1			RUA2			RUA3			RLEL			LUA1			LUA2			LUA3			LLEL			RFAsuperior			RFAradius			RFAulna			LFAsuperior			LFAradius			LFAulna			RTOE			RTH1			LMEL			RTB3			RMEL			LASI		
		X1	Y1	Z1	X2	Y2	Z2	X3	Y3	Z3	X4	Y4	Z4	X5	Y5	Z5	X6	Y6	Z6	X7	Y7	Z7	X8	Y8	Z8	X9	Y9	Z9	X10	Y10	Z10	X11	Y11	Z11	X12	Y12	Z12	X13	Y13	Z13	X14	Y14	Z14	X15	Y15	Z15	X16	Y16	Z16	X17	Y17	Z17	X18	Y18	Z18	X19	Y19	Z19	X20	Y20	Z20	X21	Y21	Z21	X22	Y22	Z22	X23	Y23	Z23	X24	Y24	Z24	X25	Y25	Z25	X26	Y26	Z26	X27	Y27	Z27	X28	Y28	Z28	X29	Y29	Z29	X30	Y30	Z30	X31	Y31	Z31	X32	Y32	Z32	X33	Y33	Z33	X34	Y34	Z34	X35	Y35	Z35	X36	Y36	Z36	X37	Y37	Z37	X38	Y38	Z38	X39	Y39	Z39	X40	Y40	Z40	X41	Y41	Z41	X42	Y42	Z42	

9	  0.090000	1078.582482	1079.175523	-235.580690	938.981736	1134.131859	-429.375621	924.784031	1131.540606	-316.485480	1028.426408	810.663646	-209.343680	1129.805433	688.951261	-213.165171	1035.526080	936.552943	-532.650362	936.831132	795.070873	-491.426172	971.646773	656.149697	-480.702160	1182.745507	441.068020	-272.555478	1086.574182	423.950367	-212.950440	962.450551	425.098210	-406.861978	845.960405	357.136434	-461.025074	847.221189	240.034108	-396.115982	942.703575	175.605931	-297.076502	1117.862097	 95.023695	-210.831010	673.532792	168.132562	-379.978556	886.691101	 68.343182	-352.183840	834.967889	 45.843137	-451.780533	1084.272634	1554.321941	-526.545125	1063.037805	1547.026880	-201.210176	1132.507689	1511.376434	-325.065682	1019.570304	1582.817427	-371.937544	927.610359	1480.536594	-158.659956	949.351258	1416.239084	-116.621362	858.538617	1363.270512	-91.382431	805.516578	1319.678737	-71.461230	1001.087618	1447.620201	-591.099716	1038.187449	1369.111722	-603.395607	976.951884	1294.731522	-631.371374	966.797059	1228.014208	-646.883894	863.561166	1227.568974	-53.207809	992.961086	1113.041077	-113.007856	944.747297	1087.484256	-70.816843	1041.483954	1196.679266	-627.893351	1188.007884	1248.175943	-519.933784	1202.030724	1182.713389	-546.796914	1178.228020	113.076320	-300.325139	1017.243079	963.841581	-181.840023	943.596859	1211.246430	-559.482328	1097.774297	272.385432	-286.992475	812.286816	1289.619194	-155.883741	1100.211628	1067.127345	-480.124572	
10	  0.100000	1079.231469	1084.637449	-234.779663	940.358253	1138.745014	-429.471960	925.925000	1136.421431	-317.134254	1027.097201	815.270817	-209.353811	1125.600167	692.404531	-213.497826	1035.943725	940.772854	-532.261978	933.373962	801.632477	-491.770200	964.604265	662.061912	-480.994549	1188.386851	443.534460	-272.333717	1094.311508	418.942912	-212.456855	950.509321	430.698074	-408.070127	833.280663	364.315454	-462.026823	834.310398	246.568551	-397.339298	969.650000	160.954196	-298.619237	1150.774078	 92.978169	-214.140255	661.170317	178.658632	-380.664436	868.596793	 68.147402	-352.297205	815.618766	 47.145921	-449.892254	1086.277216	1560.104459	-524.546884	1063.264070	1552.153358	-200.369780	1132.895282	1516.664805	-323.198228	1020.229641	1587.956749	-370.893919	926.331615	1488.043879	-159.811606	947.138364	1423.552257	-116.757289	855.388702	1371.821678	-93.048504	801.441763	1328.596415	-73.924873	1003.345142	1454.331006	-590.899718	1040.236216	1376.102797	-603.355430	978.609436	1302.373879	-632.783619	968.860890	1235.456495	-648.490429	858.915868	1236.351387	-54.671323	989.384320	1121.866851	-112.014524	940.159434	1095.984288	-71.347164	1043.628019	1205.444216	-627.928701	1186.612986	1259.774475	-518.051592	1202.995503	1194.092627	-543.789701	1208.941086	116.876160	-303.809388	1017.042819	969.407391	-180.521595	943.399282	1218.482236	-561.159246	1116.662358	269.425044	-288.468405	809.500212	1298.301596	-158.506618	1101.570912	1071.084482	-478.603441	
11	  0.110000	1079.913665	1089.480502	-234.122553	941.688205	1142.822671	-429.470323	926.784613	1140.624743	-317.363421	1025.528376	819.072021	-209.262264	1120.911667	694.806638	-213.615142	1036.487756	944.704772	-532.038985	930.557107	807.741237	-492.198312	958.530583	667.612608	-481.160566	1193.225793	445.799486	-272.589898	1101.743612	413.946703	-211.853799	939.592316	436.082962	-408.968335	821.456572	371.450553	-462.806895	821.987356	253.090021	-398.483690	996.114469	147.449950	-299.263651	1182.899974	 91.778107	-217.962848	649.303413	189.494792	-381.615577	850.671102	 68.460865	-352.468977	796.913663	 49.379452	-449.089946	1088.037999	1565.447307	-522.539642	1063.616016	1556.764365	-199.531334	1133.271192	1521.351567	-321.518062	1020.825377	1592.613382	-369.824371	925.377282	1495.096265	-160.365349	945.196330	1430.181390	-116.853086	852.581849	1379.615133	-94.592137	797.783495	1336.731230	-76.301938	1005.264376	1460.534142	-590.627832	1041.967820	1382.646932	-603.365410	980.029583	1309.571793	-634.139465	970.668372	1242.419443	-650.058321	854.737180	1244.392523	-56.070749	986.301486	1130.007317	-111.042275	936.106674	1103.794798	-71.867139	1045.413275	1213.585434	-627.958822	1185.245979	1270.279612	-515.845701	1203.532819	1204.546344	-540.787300	1237.870855	121.591889	-307.556734	1017.141465	974.154142	-179.508220	942.892957	1225.294365	-562.767053	1134.645824	266.814319	-289.664829	807.060440	1306.216317	-160.855370	1102.877836	1075.030332	-477.482338	
12	  0.120000	1080.620756	1093.298123	-233.627498	942.906162	1146.059687	-429.273876	927.378846	1143.799336	-317.041436	1023.646381	821.672400	-209.097867	1115.644278	695.689612	-213.466649	1037.217331	948.129679	-532.011021	928.697304	813.086183	-492.651450	954.025220	672.476968	-481.112431	1196.795251	447.606847	-273.249448	1108.514522	409.079435	-211.153759	930.412925	440.955110	-409.417363	811.164045	378.382754	-463.315602	810.662565	259.474698	-399.444456	1021.496745	135.751377	-298.787254	1213.383639	 92.018406	-222.318285	638.265072	200.706108	-382.893718	833.013224	 69.472444	-352.742814	779.083129	 52.812486	-449.517380	1089.393641	1570.035574	-520.582524	1064.125495	1560.549137	-198.654588	1133.620307	1525.074343	-320.098057	1021.305753	1596.445684	-368.695166	924.868906	1501.259118	-160.285545	943.659078	1435.703484	-116.879754	850.291080	1386.181580	-95.915921	794.747737	1343.594945	-78.476182	1006.654269	1465.956756	-590.217930	1043.190173	1388.451784	-603.416871	981.049804	1316.017705	-635.416422	972.055937	1248.575277	-651.544392	851.289844	1251.249989	-57.344475	983.966434	1137.061092	-110.065369	932.897003	1110.492730	-72.343064	1046.641865	1220.684233	-627.974589	1183.880292	1279.186672	-513.609727	1203.436062	1213.472894	-537.832463	1263.848518	127.659792	-311.721497	1017.663112	977.546174	-178.890867	942.200347	1231.337037	-564.328305	1151.043626	264.750104	-290.407936	805.133395	1312.898600	-162.848136	1104.085213	1078.760338	-476.799794	
